<?xml version="1.0" standalone="no"?>
<!DOCTYPE svg PUBLIC "-//W3C//DTD SVG 20010904//EN"
 "http://www.w3.org/TR/2001/REC-SVG-20010904/DTD/svg10.dtd">
<svg version="1.0" xmlns="http://www.w3.org/2000/svg"
 width="260.000000pt" height="260.000000pt" viewBox="0 0 260.000000 260.000000"
 preserveAspectRatio="xMidYMid meet">
<metadata>
Created by potrace 1.14, written by Peter Selinger 2001-2017
</metadata>
<g transform="translate(0.000000,260.000000) scale(0.100000,-0.100000)"
fill="#000000" stroke="none">
<path d="M1554 1848 c-66 -99 -123 -187 -127 -195 -6 -9 -1 -13 16 -13 21 0
42 27 137 173 62 94 120 182 128 195 13 21 13 22 -11 22 -21 0 -42 -26 -143
-182z"/>
<path d="M440 1595 c0 -3 13 -18 30 -33 23 -21 58 -99 158 -352 126 -320 128
-325 156 -325 27 0 31 6 61 85 73 194 154 410 180 479 18 49 40 85 62 105 18
17 33 34 33 38 0 5 -45 8 -100 8 -98 0 -130 -12 -70 -25 42 -9 62 -42 54 -91
-5 -37 -60 -202 -89 -269 -7 -16 -25 -63 -40 -103 -15 -41 -31 -70 -34 -65 -8
8 -174 440 -185 479 -8 28 17 54 50 54 14 0 22 4 19 10 -6 10 -285 15 -285 5z"/>
<path d="M1144 1593 c4 -4 21 -12 39 -18 42 -13 43 -18 41 -362 0 -211 -4
-286 -13 -297 -7 -9 -16 -15 -19 -14 -22 2 -42 -3 -42 -12 0 -6 55 -10 145
-10 90 0 145 4 145 10 0 6 -8 10 -18 10 -10 0 -27 6 -38 14 -17 13 -19 29 -21
170 -1 86 0 156 2 156 29 0 61 -31 105 -102 28 -46 70 -111 92 -146 41 -64 44
-92 8 -92 -11 0 -20 -4 -20 -10 0 -6 52 -10 135 -10 74 0 135 4 135 8 0 4 -14
16 -31 26 -20 12 -75 85 -157 208 -112 169 -124 192 -113 210 22 35 135 172
161 195 14 12 42 30 63 39 20 9 37 21 37 26 0 4 -52 8 -115 8 -63 0 -115 -4
-115 -8 0 -4 13 -13 30 -19 56 -21 53 -59 -12 -144 -91 -119 -130 -155 -181
-164 l-25 -5 1 146 c2 132 4 147 21 160 11 8 28 14 38 14 10 0 18 5 18 10 0 6
-57 10 -152 10 -83 0 -148 -3 -144 -7z"/>
<path d="M1840 1590 c0 -5 11 -10 25 -10 53 0 54 -14 51 -395 -1 -193 -5 -361
-9 -374 -11 -40 -37 -72 -70 -86 -18 -7 -35 -11 -39 -9 -5 3 -8 -1 -8 -9 0
-32 134 5 186 50 28 25 53 64 65 104 7 20 13 161 15 349 2 173 6 325 9 337 4
16 15 24 40 29 19 3 32 10 29 15 -7 13 -294 12 -294 -1z"/>
<path d="M1074 608 c-66 -99 -123 -187 -127 -195 -6 -9 -1 -13 16 -13 21 0 42
27 137 173 62 94 120 182 128 195 13 21 13 22 -11 22 -21 0 -42 -26 -143 -182z"/>
</g>
</svg>
